<?xml version="1.0" encoding="utf-8"?>
<!-- Generator: Adobe Illustrator 24.2.3, SVG Export Plug-In . SVG Version: 6.00 Build 0)  -->
<svg version="1.1" id="Layer_1" xmlns="http://www.w3.org/2000/svg" xmlns:xlink="http://www.w3.org/1999/xlink" x="0px" y="0px"
	 viewBox="0 0 319 144" style="enable-background:new 0 0 319 144;" xml:space="preserve">
<style type="text/css">
	.st0{fill:#FDFFFF;}
</style>
<path class="st0" d="M256.97,89.62c-1.78-0.49-3.65,0.33-5.46,1.18c-4.41,2.07-8.9,2.52-13.59,1.07c-1.07-0.33-2.51-0.64-3.39-0.19
	c-5.74,2.9-12.32,1.66-17.33,0.34c-6.05-1.59-11.77-0.12-17.49-1.28c-0.78-0.16-1.75-0.34-2.39-0.02
	c-7.62,3.86-15.34,1.38-23.03,0.46c-5.75-0.69-11.39-1.57-17.05,1.29c-4.32,2.18-9.17,1.25-13.72,0.01
	c-3.95-1.08-7.72-1.06-11.78-0.18c-7.5,1.61-14.85-0.45-22.21-1.92c-6.72-1.34-13.49-1.81-20.41-0.87
	c-7.22,0.98-14.07-2.14-21.13-3.13c-2.32-0.32-0.62-2.58,0.24-2.8c6.05-1.61,10.54-5.01,14.07-10.21c0.99-1.45,3.72-0.69,5.69-0.03
	c2.83,0.95,4.6,0.78,4.74-3.15c0.2-5.77,3.42-7.63,8.64-5.35c3.24,1.41,4.27,0.75,4.58-2.88c0.81-9.56,6.04-16.21,13.77-18.3
	c7.12-1.93,13.16,0.41,17.19,6.71c2.88,4.51,5.84,7.22,12.28,7.68c5.22,0.38,8.27-1.26,10.59-4.2c6.3-7.98,19.12-3.68,22.16,6.05
	c0.44,1.41,0.33,3.04,0.94,4.35c1.01,2.16,2.14,5.36,4.69,4.87c2.19-0.42,5.29-2.19,5.22-5.28c-0.2-8.86,5.41-13.12,12.44-16.21
	c2.93-1.29,4.8-2.9,5.79-6.13c1.24-4.04,4.85-5.38,8.81-3.74c1.95,0.8,3.62,1.76,5.12-0.61c2.44-3.83,5.81-5.58,10.21-3.71
	c4.53,1.92,6.63,5.84,6,10.48c-0.54,3.97,1.99,5.54,4.38,6.72c5.92,2.92,7.14,6.53,3.35,11.97c-1.98,2.84-0.63,7.86,2.77,8.93
	c2.73,0.85,4.42,2.24,4.83,5c0.22,1.44,0.83,2.02,2.26,1.94c4.51-0.27,5.94,2.46,5.65,6.31C264.05,89.11,261.14,90.2,256.97,89.62z"
	/>
</svg>
