<?xml version="1.0" encoding="utf-8"?>
<!-- Generator: Adobe Illustrator 24.2.3, SVG Export Plug-In . SVG Version: 6.00 Build 0)  -->
<svg version="1.1" id="Layer_1" xmlns="http://www.w3.org/2000/svg" xmlns:xlink="http://www.w3.org/1999/xlink" x="0px" y="0px"
	 viewBox="0 0 434 628" style="enable-background:new 0 0 434 628;" xml:space="preserve">
<style type="text/css">
	.st0{clip-path:url(#SVGID_2_);}
	.st1{fill:none;stroke:#000000;stroke-width:5;stroke-miterlimit:10;}
	.st2{fill:none;stroke:#000000;stroke-width:3;stroke-miterlimit:10;}
</style>
<g>
	<defs>
		<path id="SVGID_1_" d="M363.09,54.99h-309c-11.6,0-21,9.4-21,21v488c0,11.6,9.4,21,21,21h309c11.6,0,21-9.4,21-21v-488
			C384.09,64.39,374.69,54.99,363.09,54.99z"/>
	</defs>
	<clipPath id="SVGID_2_">
		<use xlink:href="#SVGID_1_"  style="overflow:visible;"/>
	</clipPath>
	<g class="st0">
		<path class="st1" d="M306.4,125.82c-0.89-0.44-1.9-0.71-2.67-1.35c-20.01-16.64-54.76-19.21-56.04-19.31
			c-17.35-1.33-33.85,2.2-48.03,13.32c-18.68,14.66-8.01,78.61,1.67,91.14c3.35,4.34,6.28,39.76,6.34,52.76
			c0.07,16.75-6.03,28.71-13.34,42.64c-6.28,11.96-15.94,19.92-27.95,24.8c-11.49,4.68-22.91,8.73-35.4,10.06
			c-6.47,0.69-11.57-0.16-16.1-4.8c-0.65-0.67-1.67-0.89-1.95-2.07c-3.63-15.46-16.37-21.99-28.74-28.51
			c-6.2-3.26-12.84-5.94-19.93-7.2c-5.92-1.05-10.91,2.32-12.06,8.38c-1.16,6.1-0.07,11.82,2.43,17.31
			c1.87,4.12,2.83,8.22,1.63,12.69"/>
		<path class="st1" d="M68.23,414.28c-6.88,8.49-6.38,19.37,2.09,27.22c5.74,5.32,9.37,11.55,11.97,18.73
			c2.75,7.57,8.73,12.94,14.02,18.6c8.5,9.1,18.85,15.86,29.98,21.32c4.71,2.31,8.94,5.29,13.26,8.13
			c8.37,5.49,17.73,6.92,27.3,9.06c10.3,2.3,20.88-0.21,30.79,3.53"/>
		<path class="st1" d="M112.26,333.67c-5.98,2.58-12.57,0.32-18.73,2.86c-12.57,5.21-17.13,13.98-11.75,26.36
			c1.92,4.42,2.98,8.95,4.47,13.42"/>
		<path class="st1" d="M250.36,90.51c-15.29-2.48-29.55,1.48-43.31,7.45c-5.68,2.46-30.74,16.54-43.42,28.53"/>
		<path class="st1" d="M164.97,139.81c-2.67-10.66-2.67-23.98-4-34.64c-0.47-1.84,0.23-5.08,1.33-6.66
			c7.93-11.37,17.43-20.95,29.87-28.22c3.38-1.97,8.45-5.18,11.49-6.42c1.55-0.64,0,15.99,1.33,15.99s0-15.99,0-15.99
			c-0.19-2.21,20.48-6.7,30.02-6.85c14.61-0.23,28.67,1.6,42,7.58c10.39,4.66,21.16,8.83,29.38,17.25c6.55,6.72,6.67,16.65,4,27.31"
			/>
		<path class="st1" d="M172.97,519.54c0,1.33,9.63,22.05,12.72,28.63c3.28,7.01,4.63,13.83,1.4,21.38c-3,7.01-0.32,11.21,7.25,11.9
			c13.53,1.24,27.1,1.75,40.69,1.48c39.36-3.44-10.01-10.1-20.68-22.09c-4.12-5.57-18.09-37.16-15.86-39.13
			c2.25-2,5.04-5.14,8.49-4.04c7.65,2.47,15.57,2.77,23.39,3.89c7.55,1.08,15.12,0.56,22.68,0.63c8.18,0.08,36.75-6.76,39.19-9.46
			c7.86-8.74,18.28-12.55,28.94-14.84c7.9-1.7,14.49-5.41,21.19-9.13c3.38-1.88,6.76-3.85,10.06-5.89
			c12.06-7.46,21.48-16.97,25.47-31.23c3.82-13.6,4.62-27.3,4.06-41.33c-0.59-14.75-5.7-27.97-14.37-39.12
			c-14.73-18.96-34.18-33.34-51.77-49.51c-7.3-6.71-14.48-13.39-20.37-21.72c-5.82-8.21-7.15-18.01-12.26-26.26
			c-0.85-1.39-0.63-3.49-0.75-5.28c-1.35-19.81,2.14-38.85,9.33-57.29"/>
		<path class="st1" d="M262.37,519.54c2.67,10.66,18.75,39.29,20.01,51.96c0.41,4.12-3.91,10.34,0,10.66
			c16.01,1.33,17.35-1.33,22.68-1.33c10.75,0,32.02,1.33,32.02,1.33c9.34-4-19.17-12.55-23.46-15.15
			c-15.36-9.27-20.57-23.49-21.91-54.14"/>
		<path class="st1" d="M58.89,374.98c-8.78-5.42-14.89-5.42-20.68,0c-3.51,3.29-3.78,8.31-0.67,11.99
			c6.36,7.54,27.41,17.32,27.95,19.33c2.4,8.82,11.53,10.74,16.74,16.64"/>
		<path class="st1" d="M199.66,118.49c-46.7,19.99-47.7,39.6-65.38,50.63c-10.67,6.66,16.69,19.28,16.69,19.28
			c13.5,6.62,27.22,12.3,42.68,6.7"/>
		<path class="st1" d="M248.36,105.17c-0.67,0,3.52-30.37,15.34-27.98c3.68,0.75,28.14,6.26,29.35,11.99
			c0.49,2.32-1.33,18.65-4,26.65"/>
		<path class="st1" d="M96.25,383.64c-3.39-3.22-6.42-7.35-11.99-5.97c-7.03,1.75-15.77,0.96-17.96,10.65
			c-1.19,5.24,0.84,10.7-0.72,15.98"/>
		<path class="st1" d="M64.9,344.66c-1.55-0.52-2.63-1.51-3.35-3c-3.3-6.84-10.34-6.82-16.01-7.02c-8.11-0.28-13.48,13.4-8.59,20.96
			c3.04,4.72,6.46,9.17,7.94,14.7"/>
		<path class="st1" d="M311.73,147.8c-9.34,9.33-38.69,11.99-45.36,9.33c-11.69-4.66-4-1.33-2.67,17.32
			c1.05,14.68-18.76,15.49-12.01,19.99c8.01,5.33,28.02,13.32,44.03,15.99c0,0,52.04,2.67,74-5.46c3.67-1.36,7.3-3.86,8.06-8.53
			c0.87-5.33-3.32-7.05-6.68-9.3c-1.23-0.83-2.65-1.36-3.99-2.03c-10.82-5.36-21.24-11.34-31.5-17.75
			c-6.78-4.24-10.73-11.49-17.89-14.84c-8.97-4.21-9.82-12.72-11.09-20.75c-0.4-2.56,0.68-5.66,3.6-8.15
			c4.98-4.28,4.95-8.35,2.84-10.46c-6.67-6.66-13.34-9.33-21.35-11.99"/>
		<path d="M219.91,155.61c2.11,0,3.22-2.72,3.52-5.05c0.63-4.76-1.36-10.39-5.79-11.57c-0.2-0.05-0.39-0.08-0.55-0.08
			c-1.56,0-2.39,2.54-2.6,3.33c-1.19,4.28-0.19,10.67,2.88,12.51C218.32,155.32,219.18,155.61,219.91,155.61z"/>
		<path d="M217.24,140.95c-0.49,0.57-1.35,2.62-1.23,5.72c0.11,2.97,1.09,5.58,2.39,6.37c0.88,0.53,1.38,0.57,1.51,0.57
			c0.45,0,1.27-1.25,1.53-3.3C221.94,146.54,220.5,141.95,217.24,140.95z M217.1,136.9c0.35,0,0.69,0.05,1.07,0.15
			c9.78,2.61,9.29,20.55,1.75,20.55c-1.05,0-2.24-0.35-3.56-1.15C210.01,152.67,210.89,136.9,217.1,136.9z"/>
		<path class="st2" d="M291.72,101.17c-13.34-5.33-26.68-9.33-40.96-10.21"/>
	</g>
</g>
</svg>
