<svg width="534" height="165" viewBox="0 0 534 165" fill="none" xmlns="http://www.w3.org/2000/svg">
<path d="M513.895 153.818C509.085 152.495 504.032 154.709 499.14 157.005C487.223 162.596 475.09 163.812 462.416 159.895C459.525 159.004 455.634 158.167 453.255 159.382C437.744 167.215 419.963 163.866 406.425 160.3C390.076 156.006 374.619 159.976 359.162 156.843C357.054 156.411 354.433 155.925 352.703 156.789C332.112 167.215 311.25 160.516 290.469 158.032C274.931 156.168 259.69 153.791 244.395 161.516C232.721 167.404 219.615 164.892 207.32 161.543C196.646 158.626 186.458 158.68 175.487 161.057C155.22 165.405 135.358 159.841 115.469 155.871C97.3096 152.252 79.015 150.982 60.3152 153.521C40.8046 156.168 22.2939 147.741 3.21573 145.067C-3.05358 144.203 1.54031 138.099 3.86428 137.505C20.2132 133.156 32.3464 123.973 41.8855 109.928C44.5608 106.012 51.9381 108.064 57.2616 109.847C64.9091 112.413 69.6921 111.954 70.0704 101.339C70.6109 85.7546 79.3123 80.7309 93.4183 86.889C102.174 90.6973 104.957 88.9147 105.795 79.1103C107.984 53.2894 122.117 35.3282 143.005 29.6833C162.246 24.4705 178.568 30.7906 189.458 47.8065C197.24 59.9877 205.239 67.3073 222.642 68.5497C236.748 69.576 244.99 65.1465 251.259 57.2058C268.284 35.6523 302.927 47.2663 311.142 73.5464C312.331 77.3547 312.034 81.7572 313.682 85.2955C316.411 91.1295 319.465 99.7725 326.356 98.449C332.274 97.3146 340.651 92.534 340.462 84.1881C339.921 60.2578 355.081 48.7518 374.078 40.406C381.996 36.9218 387.049 32.5733 389.725 23.8492C393.075 12.9375 402.831 9.31822 413.532 13.7478C418.801 15.9085 423.314 18.5014 427.368 12.1002C433.961 1.75561 443.068 -2.97102 454.958 2.07972C467.199 7.26552 472.874 17.8532 471.172 30.3855C469.712 41.1082 476.549 45.3487 483.008 48.5358C499.005 56.4225 502.302 66.1729 492.06 80.8659C486.71 88.5366 490.358 102.095 499.546 104.985C506.923 107.281 511.49 111.035 512.598 118.49C513.192 122.379 514.841 123.946 518.705 123.73C530.892 123 534.757 130.374 533.973 140.773C533.027 152.441 525.164 155.385 513.895 153.818Z" fill="#FEFEFF"/>
</svg>
